<svg xmlns="http://www.w3.org/2000/svg" width="920.155" height="881.645" viewBox="0 0 920.155 881.645"

>
  <g id="Group_2" data-name="Group 2" transform="translate(-1714 2475)">
    <g id="Group_1" data-name="Group 1">
      <path id="Path_1" data-name="Path 1" d="M1722.085-1687.531l102.234-60.989-47.475-61.5Z" fill="none" stroke="#b2acac" stroke-width="1"/>
      <path id="Path_2" data-name="Path 2" d="M1824.319-1748.776l113.46-50.993-101.8-25.619Z" fill="none" stroke="#b2acac" stroke-width="1"/>
      <path id="Path_3" data-name="Path 3" d="M1776.712-1810.021l61.384-15.117-3.244-69.671-40.051-28.656Z" fill="none" stroke="#b2acac" stroke-width="1"/>
      <path id="Path_4" data-name="Path 4" d="M1777.165-1810.03l57.4-85.243,34.3-72.8,119.116-40.63-28.494,123.241-90.622-80.168" fill="none" stroke="#b2acac" stroke-width="1"/>
      <path id="Path_5" data-name="Path 5" d="M1937.778-1799.1l-43.48,79.157,162-92.291Z" fill="none" stroke="#b2acac" stroke-width="1"/>
      <path id="Path_6" data-name="Path 6" d="M1824.319-1748.776l275.169,105.594L2055.9-1811.628l2.358-.281,143.122-17.032-37.555,131.388-102.2-110.794" fill="none" stroke="#b2acac" stroke-width="1"/>
      <path id="Path_7" data-name="Path 7" d="M2098.768-1643.182l63.625-53.552,87.385-29.816-47-101.883,29.81-52.2,42.938,77.02-68.931-24.823" fill="none" stroke="#b2acac" stroke-width="1"/>
      <path id="Path_8" data-name="Path 8" d="M2056.3-1812.235l4.629-38.857,140.951,22.524-10.465-71.278-125.567,48.754,37.243-98.026,90.066,49.272,66.123-68.779-26.344,88.19-39.779-16.508" fill="none" stroke="#b2acac" stroke-width="1"/>
      <path id="Path_9" data-name="Path 9" d="M1936.362-1802.147l-8.69-37.031,128.335,27.2" fill="none" stroke="#b2acac" stroke-width="1"/>
      <path id="Path_10" data-name="Path 10" d="M1891.95-1852.652l44.187,51.147" fill="none" stroke="#b2acac" stroke-width="1"/>
      <path id="Path_11" data-name="Path 11" d="M1838.1-1825.388l53.05-26.948-54.736-41.96,124.075,9.883-65.356,29.754,32.759,15.373,30.927-42.856,5.244-6.015,140.562-60.3,152.733-18.643" fill="none" stroke="#b2acac" stroke-width="1"/>
      <path id="Path_12" data-name="Path 12" d="M1963.207-1884.368l96.639,34.083-130.411,11.761" fill="none" stroke="#b2acac" stroke-width="1"/>
      <path id="Path_13" data-name="Path 13" d="M1751.96-1954.17l42.551,30.4,72.3-43.45Z" fill="none" stroke="#b2acac" stroke-width="1"/>
      <path id="Path_14" data-name="Path 14" d="M1851.29-2004.732l17.008,36.2,42.447-44.486Z" fill="none" stroke="#b2acac" stroke-width="1"/>
      <path id="Path_15" data-name="Path 15" d="M1751.96-1955.918l98.946-48.9" fill="none" stroke="#b2acac" stroke-width="1"/>
      <path id="Path_16" data-name="Path 16" d="M1910.745-2013.017l79.334,3.725,20.964-34.6-95.4,29.15" fill="none" stroke="#b2acac" stroke-width="1"/>
      <path id="Path_17" data-name="Path 17" d="M2012.518-2043.892l90.491,95.688-112.65-60.385" fill="none" stroke="#b2acac" stroke-width="1"/>
      <path id="Path_18" data-name="Path 18" d="M2015.234-2043.892l100.064-12.354-12.748,105.817,37.05-109.055-21.609,3.237-40.542-31.645-62.214,41.527,58.54-60.12,88.36-3.194-80.337,21.787" fill="none" stroke="#b2acac" stroke-width="1"/>
      <path id="Path_19" data-name="Path 19" d="M2082.19-2085.942l57.281,25.349,22.342-48.367,140.662,65.3-160.14-16.936,114.706,91.356,45.434-71.006,40.952,30.358-81.441,40.649,116.4-24.313-31.895-16.336,144.375-42.779-109.794,59.115,75.106,31.219-35.341,28.98-42.45-57.534-42.114,107.659-79.228-83.2" fill="none" stroke="#b2acac" stroke-width="1"/>
      <path id="Path_20" data-name="Path 20" d="M2249.982-1728.447l26.044-73.972,44.379-31.271-86.194-48.355h101.763l-15.569,46.051,96.555-22.209-78.668-23.842,81.349-49.643-2.68,68.919,28.137,4.566-23.708-73.485,97.332,79.744-70.551-6.259-20.219,86.9-10.99-83.37" fill="none" stroke="#b2acac" stroke-width="1"/>
      <path id="Path_21" data-name="Path 21" d="M2165.22-1697.121l23.164,26.806,61.116-55.59,176.72-40.621,5.912,172.173-180.963-129.595" fill="none" stroke="#b2acac" stroke-width="1"/>
      <path id="Path_22" data-name="Path 22" d="M2308.328-2043.892l155.4-88.674,28.857,82.046Z" fill="none" stroke="#b2acac" stroke-width="1"/>
      <path id="Path_23" data-name="Path 23" d="M2303.486-2048.642l47.946-138.993,113.449,55.154,12.476-40.108-121.013-15.046,63.927-34.543,51.966,46.932,13-7.746,83.322,50.511h-96.326l88.549,68.3-70.546,11.7h46.887l34.707,60.065-78.1-56.224,62.4,71.5-100.823,15.916,34.933-87.414" fill="none" stroke="#b2acac" stroke-width="1"/>
      <path id="Path_24" data-name="Path 24" d="M2459.425-1961.228l60.041,109.251,57.258-101.839Z" fill="none" stroke="#b2acac" stroke-width="1"/>
      <path id="Path_25" data-name="Path 25" d="M2165.532-2113.469l72.8-51.058,64.335,120.6v-147.411l-59.777,24.264-11.028-107.086,66.086,80.035,53.017-38.688L2234.3-2274.157l-181.233,75.573,21.91,92.646" fill="none" stroke="#b2acac" stroke-width="1"/>
      <path id="Path_26" data-name="Path 26" d="M2239.862-2165.56l-85.8-77.656,8.059,133.069-109.057-90.663,22.569-71.5,75.553,29.1,6.448-75.146-79.2,46.051" fill="none" stroke="#b2acac" stroke-width="1"/>
      <path id="Path_27" data-name="Path 27" d="M2232.094-2277.813l-26.056-154.1-47.431,114.342,76.959,44.677,131.762-179.718-157.047,20.7-38.517-12.385-13.157,123.146" fill="none" stroke="#b2acac" stroke-width="1"/>
      <path id="Path_28" data-name="Path 28" d="M2367.329-2452.613l-13.874,216.846,124.53-47.8-110.657-169.045,190.354,122.839-74.464,43.35v97.527l37.006-94.671-42.24-2.856-59.653,65.224-64.877-11.249-3.736,41.411-46.245,2.141" fill="none" stroke="#b2acac" stroke-width="1"/>
      <path id="Path_29" data-name="Path 29" d="M2419.282-2222.179l65.688,37.761" fill="none" stroke="#b2acac" stroke-width="1"/>
      <path id="Path_30" data-name="Path 30" d="M2521.832-2284.912l44.609,152.045" fill="none" stroke="#b2acac" stroke-width="1"/>
      <path id="Path_31" data-name="Path 31" d="M2521.832-2287.272l37.5-40.438,74.7,15.624-112.2,27.28" fill="none" stroke="#b2acac" stroke-width="1"/>
      <path id="Path_32" data-name="Path 32" d="M2477.242-2171.125l90.035,39.879" fill="none" stroke="#b2acac" stroke-width="1"/>
      <path id="Path_33" data-name="Path 33" d="M2369.98-2452.613l21.006-19.045,187.873,5.738" fill="none" stroke="#b2acac" stroke-width="1"/>
      <path id="Path_34" data-name="Path 34" d="M2559.993-2329.655,2391.133-2470.4" fill="none" stroke="#b2acac" stroke-width="1"/>
    </g>
    <circle id="Ellipse_1" data-name="Ellipse 1" cx="8.5" cy="8.5" r="8.5" transform="translate(1714 -1697)" fill="#00845e"/>
    <circle id="Ellipse_2" data-name="Ellipse 2" cx="6.5" cy="6.5" r="6.5" transform="translate(1772 -1816)" fill="#e32955"/>
    <circle id="Ellipse_3" data-name="Ellipse 3" cx="9.5" cy="9.5" r="9.5" transform="translate(1814 -1758)" fill="#e32955"/>
    <circle id="Ellipse_4" data-name="Ellipse 4" cx="5.5" cy="5.5" r="5.5" transform="translate(1818 -1754)" fill="#0065cb"/>
    <circle id="Ellipse_5" data-name="Ellipse 5" cx="8.5" cy="8.5" r="8.5" transform="translate(1885 -1729)" fill="#00845e"/>
    <circle id="Ellipse_6" data-name="Ellipse 6" cx="6.5" cy="6.5" r="6.5" transform="translate(1887 -1727)" fill="#db9f01"/>
    <circle id="Ellipse_7" data-name="Ellipse 7" cx="7" cy="7" r="7" transform="translate(1832 -1831)" fill="#00845e"/>
    <circle id="Ellipse_8" data-name="Ellipse 8" cx="4" cy="4" r="4" transform="translate(1835 -1828)" fill="#db9f01"/>
    <circle id="Ellipse_9" data-name="Ellipse 9" cx="6" cy="6" r="6" transform="translate(1829 -1900)" fill="#db9f01"/>
    <circle id="Ellipse_10" data-name="Ellipse 10" cx="5" cy="5" r="5" transform="translate(1790 -1928)" fill="#db9f01"/>
    <circle id="Ellipse_11" data-name="Ellipse 11" cx="2" cy="2" r="2" transform="translate(1793 -1925)" fill="#00845e"/>
    <circle id="Ellipse_12" data-name="Ellipse 12" cx="8" cy="8" r="8" transform="translate(1742 -1962)" fill="#0065cb"/>
    <circle id="Ellipse_13" data-name="Ellipse 13" cx="5" cy="5" r="5" transform="translate(1863 -1973)" fill="#00845e"/>
    <circle id="Ellipse_14" data-name="Ellipse 14" cx="6.5" cy="6.5" r="6.5" transform="translate(1844 -2012)" fill="#0065cb"/>
    <circle id="Ellipse_15" data-name="Ellipse 15" cx="3.5" cy="3.5" r="3.5" transform="translate(1847 -2009)" fill="#db9f01"/>
    <circle id="Ellipse_16" data-name="Ellipse 16" cx="6" cy="6" r="6" transform="translate(1905 -2020)" fill="#e32955"/>
    <circle id="Ellipse_17" data-name="Ellipse 17" cx="4.5" cy="4.5" r="4.5" transform="translate(1907 -2018)" fill="#00845e"/>
    <circle id="Ellipse_18" data-name="Ellipse 18" cx="2" cy="2" r="2" transform="translate(1909 -2016)" fill="#0065cb"/>
    <circle id="Ellipse_19" data-name="Ellipse 19" cx="6.5" cy="6.5" r="6.5" transform="translate(1885 -1859)" fill="#db9f01"/>
    <circle id="Ellipse_20" data-name="Ellipse 20" cx="4.5" cy="4.5" r="4.5" transform="translate(1887 -1857)" fill="#00845e"/>
    <circle id="Ellipse_21" data-name="Ellipse 21" cx="8" cy="8" r="8" transform="translate(1951 -1893)" fill="#db9f01"/>
    <circle id="Ellipse_22" data-name="Ellipse 22" cx="7" cy="7" r="7" transform="translate(1921 -1845)" fill="#db9f01"/>
    <circle id="Ellipse_23" data-name="Ellipse 23" cx="5" cy="5" r="5" transform="translate(1923 -1843)" fill="#e32955"/>
    <circle id="Ellipse_24" data-name="Ellipse 24" cx="7" cy="7" r="7" transform="translate(1929 -1807)" fill="#0065cb"/>
    <circle id="Ellipse_25" data-name="Ellipse 25" cx="10" cy="10" r="10" transform="translate(2047 -1822)" fill="#00845e"/>
    <circle id="Ellipse_26" data-name="Ellipse 26" cx="9" cy="9" r="9" transform="translate(2154 -1708)" fill="#0065cb"/>
    <circle id="Ellipse_27" data-name="Ellipse 27" cx="10" cy="10" r="10" transform="translate(2178 -1681)" fill="#0065cb"/>
    <circle id="Ellipse_28" data-name="Ellipse 28" cx="12" cy="12" r="12" transform="translate(2049 -1861)" fill="#0065cb"/>
    <circle id="Ellipse_29" data-name="Ellipse 29" cx="5.5" cy="5.5" r="5.5" transform="translate(2056 -1854)" fill="#db9f01"/>
    <circle id="Ellipse_30" data-name="Ellipse 30" cx="11.5" cy="11.5" r="11.5" transform="translate(2239 -1737)" fill="#e32955"/>
    <circle id="Ellipse_31" data-name="Ellipse 31" cx="7.5" cy="7.5" r="7.5" transform="translate(2269 -1809)" fill="#00845e"/>
    <circle id="Ellipse_32" data-name="Ellipse 32" cx="4.5" cy="4.5" r="4.5" transform="translate(2272 -1806)" fill="#0065cb"/>
    <circle id="Ellipse_33" data-name="Ellipse 33" cx="7" cy="7" r="7" transform="translate(2195 -1835)" fill="#0065cb"/>
    <circle id="Ellipse_34" data-name="Ellipse 34" cx="3.5" cy="3.5" r="3.5" transform="translate(2199 -1831)" fill="#e32955"/>
    <circle id="Ellipse_35" data-name="Ellipse 35" cx="4" cy="4" r="4" transform="translate(2187 -1903)" fill="#0065cb"/>
    <circle id="Ellipse_36" data-name="Ellipse 36" cx="8" cy="8" r="8" transform="translate(2095 -1956)" fill="#00845e"/>
    <g id="Ellipse_37" data-name="Ellipse 37" transform="translate(2097 -1954)" fill="none" stroke="#e32955" stroke-width="2">
      <circle cx="6.5" cy="6.5" r="6.5" stroke="none"/>
      <circle cx="6.5" cy="6.5" r="5.5" fill="none"/>
    </g>
    <circle id="Ellipse_38" data-name="Ellipse 38" cx="6.5" cy="6.5" r="6.5" transform="translate(2109 -2062)" fill="#0065cb"/>
    <circle id="Ellipse_39" data-name="Ellipse 39" cx="5" cy="5" r="5" transform="translate(2134 -2066)" fill="#e32955"/>
    <circle id="Ellipse_40" data-name="Ellipse 40" cx="4" cy="4" r="4" transform="translate(2135 -2065)" fill="#db9f01"/>
    <circle id="Ellipse_41" data-name="Ellipse 41" cx="3" cy="3" r="3" transform="translate(2136 -2064)" fill="#0065cb"/>
    <circle id="Ellipse_42" data-name="Ellipse 42" cx="5.5" cy="5.5" r="5.5" transform="translate(1985 -2015)" fill="#0065cb"/>
    <circle id="Ellipse_45" data-name="Ellipse 45" cx="9.5" cy="9.5" r="9.5" transform="translate(2002 -2054)" fill="#0065cb"/>
    <g id="Ellipse_46" data-name="Ellipse 46" transform="translate(2005 -2051)" fill="none" stroke="#e32955" stroke-width="2">
      <circle cx="6.5" cy="6.5" r="6.5" stroke="none"/>
      <circle cx="6.5" cy="6.5" r="5.5" fill="none"/>
    </g>
    <circle id="Ellipse_43" data-name="Ellipse 43" cx="2.5" cy="2.5" r="2.5" transform="translate(2009 -2047)" fill="#00845e"/>
    <circle id="Ellipse_49" data-name="Ellipse 49" cx="8" cy="8" r="8" transform="translate(2069 -2096)" fill="#db9f01"/>
    <circle id="Ellipse_48" data-name="Ellipse 48" cx="5" cy="5" r="5" transform="translate(2072 -2093)" fill="#00845e"/>
    <circle id="Ellipse_47" data-name="Ellipse 47" cx="4" cy="4" r="4" transform="translate(2073 -2092)" fill="#0065cb"/>
    <circle id="Ellipse_50" data-name="Ellipse 50" cx="7" cy="7" r="7" transform="translate(2068 -2112)" fill="#00845e"/>
    <circle id="Ellipse_52" data-name="Ellipse 52" cx="6.5" cy="6.5" r="6.5" transform="translate(2226 -1888)" fill="#00845e"/>
    <circle id="Ellipse_51" data-name="Ellipse 51" cx="3.5" cy="3.5" r="3.5" transform="translate(2229 -1885)" fill="#e32955"/>
    <circle id="Ellipse_54" data-name="Ellipse 54" cx="9" cy="9" r="9" transform="translate(2327 -1893)" fill="#0065cb"/>
    <circle id="Ellipse_53" data-name="Ellipse 53" cx="8" cy="8" r="8" transform="translate(2328 -1892)" fill="#e32955"/>
    <circle id="Ellipse_55" data-name="Ellipse 55" cx="4.5" cy="4.5" r="4.5" transform="translate(2315 -1838)" fill="#0065cb"/>
    <circle id="Ellipse_56" data-name="Ellipse 56" cx="3.5" cy="3.5" r="3.5" transform="translate(2316 -1837)" fill="#00845e"/>
    <circle id="Ellipse_57" data-name="Ellipse 57" cx="2.5" cy="2.5" r="2.5" transform="translate(2317 -1836)" fill="#e32955"/>
    <circle id="Ellipse_58" data-name="Ellipse 58" cx="8" cy="8" r="8" transform="translate(2251 -1976)" fill="#00845e"/>
    <circle id="Ellipse_59" data-name="Ellipse 59" cx="6" cy="6" r="6" transform="translate(2253 -1974)" fill="#db9f01"/>
    <circle id="Ellipse_60" data-name="Ellipse 60" cx="10.5" cy="10.5" r="10.5" transform="translate(2292 -2053)" fill="#db9f01"/>
    <circle id="Ellipse_61" data-name="Ellipse 61" cx="6.5" cy="6.5" r="6.5" transform="translate(2338 -2016)" fill="#db9f01"/>
    <circle id="Ellipse_62" data-name="Ellipse 62" cx="9.5" cy="9.5" r="9.5" transform="translate(2370 -2004)" fill="#db9f01"/>
    <circle id="Ellipse_63" data-name="Ellipse 63" cx="6" cy="6" r="6" transform="translate(2374 -2000)" fill="#00845e"/>
    <circle id="Ellipse_64" data-name="Ellipse 64" cx="6" cy="6" r="6" transform="translate(2415 -1939)" fill="#00845e"/>
    <circle id="Ellipse_65" data-name="Ellipse 65" cx="9" cy="9" r="9" transform="translate(2450 -1969)" fill="#0065cb"/>
    <circle id="Ellipse_66" data-name="Ellipse 66" cx="11" cy="11" r="11" transform="translate(2415 -1778)" fill="#0065cb"/>
    <circle id="Ellipse_67" data-name="Ellipse 67" cx="6" cy="6" r="6" transform="translate(2420 -1773)" fill="#e32955"/>
    <circle id="Ellipse_68" data-name="Ellipse 68" cx="3" cy="3" r="3" transform="translate(2423 -1770)" fill="#00845e"/>
    <circle id="Ellipse_69" data-name="Ellipse 69" cx="5" cy="5" r="5" transform="translate(2442 -1863)" fill="#0065cb"/>
    <circle id="Ellipse_70" data-name="Ellipse 70" cx="8.5" cy="8.5" r="8.5" transform="translate(2408 -1867)" fill="#00845e"/>
    <g id="Ellipse_71" data-name="Ellipse 71" transform="translate(2411 -1864)" fill="none" stroke="#e32955" stroke-width="2">
      <circle cx="5.5" cy="5.5" r="5.5" stroke="none"/>
      <circle cx="5.5" cy="5.5" r="4.5" fill="none"/>
    </g>
    <circle id="Ellipse_72" data-name="Ellipse 72" cx="4.5" cy="4.5" r="4.5" transform="translate(2412 -1863)" fill="#0065cb"/>
    <circle id="Ellipse_73" data-name="Ellipse 73" cx="9" cy="9" r="9" transform="translate(2154 -2119)" fill="#00845e"/>
    <circle id="Ellipse_74" data-name="Ellipse 74" cx="8" cy="8" r="8" transform="translate(2155 -2118)" fill="#db9f01"/>
    <circle id="Ellipse_75" data-name="Ellipse 75" cx="4.5" cy="4.5" r="4.5" transform="translate(2159 -2114)" fill="#00845e"/>
    <circle id="Ellipse_76" data-name="Ellipse 76" cx="2.5" cy="2.5" r="2.5" transform="translate(2161 -2112)" fill="#e32955"/>
    <circle id="Ellipse_77" data-name="Ellipse 77" cx="7.5" cy="7.5" r="7.5" transform="translate(2045 -2207)" fill="#db9f01"/>
    <circle id="Ellipse_78" data-name="Ellipse 78" cx="4.5" cy="4.5" r="4.5" transform="translate(2048 -2204)" fill="#0065cb"/>
    <circle id="Ellipse_79" data-name="Ellipse 79" cx="3.5" cy="3.5" r="3.5" transform="translate(2049 -2203)" fill="#00845e"/>
    <circle id="Ellipse_80" data-name="Ellipse 80" cx="6" cy="6" r="6" transform="translate(2070 -2276)" fill="#e32955"/>
    <circle id="Ellipse_81" data-name="Ellipse 81" cx="5.5" cy="5.5" r="5.5" transform="translate(2148 -2246)" fill="#db9f01"/>
    <circle id="Ellipse_82" data-name="Ellipse 82" cx="9" cy="9" r="9" transform="translate(2150 -2327)" fill="#0065cb"/>
    <circle id="Ellipse_83" data-name="Ellipse 83" cx="5.5" cy="5.5" r="5.5" transform="translate(2154 -2323)" fill="#00845e"/>
    <circle id="Ellipse_84" data-name="Ellipse 84" cx="9" cy="9" r="9" transform="translate(2225 -2281)" fill="#0065cb"/>
    <circle id="Ellipse_85" data-name="Ellipse 85" cx="6.5" cy="6.5" r="6.5" transform="translate(2167 -2449)" fill="#0065cb"/>
    <circle id="Ellipse_86" data-name="Ellipse 86" cx="6.5" cy="6.5" r="6.5" transform="translate(2199 -2438)" fill="#0065cb"/>
    <circle id="Ellipse_87" data-name="Ellipse 87" cx="5.5" cy="5.5" r="5.5" transform="translate(2200 -2438)" fill="#00845e"/>
    <circle id="Ellipse_88" data-name="Ellipse 88" cx="7" cy="7" r="7" transform="translate(2360 -2459)" fill="#0065cb"/>
    <circle id="Ellipse_89" data-name="Ellipse 89" cx="4.5" cy="4.5" r="4.5" transform="translate(2362 -2457)" fill="#db9f01"/>
    <circle id="Ellipse_90" data-name="Ellipse 90" cx="3.5" cy="3.5" r="3.5" transform="translate(2388 -2475)" fill="#00845e"/>
    <circle id="Ellipse_91" data-name="Ellipse 91" cx="7" cy="7" r="7" transform="translate(2472 -2292)" fill="#00845e"/>
    <circle id="Ellipse_92" data-name="Ellipse 92" cx="4.5" cy="4.5" r="4.5" transform="translate(2516 -2289)" fill="#00845e"/>
    <g id="Ellipse_93" data-name="Ellipse 93" transform="translate(2553 -2338)" fill="#00845e" stroke="#0065cb" stroke-width="1">
      <circle cx="9" cy="9" r="9" stroke="none"/>
      <circle cx="9" cy="9" r="8.5" fill="none"/>
    </g>
    <g id="Ellipse_94" data-name="Ellipse 94" transform="translate(2234 -2171)" fill="#e32955" stroke="#e32955" stroke-width="1">
      <circle cx="6.5" cy="6.5" r="6.5" stroke="none"/>
      <circle cx="6.5" cy="6.5" r="6" fill="none"/>
    </g>
    <circle id="Ellipse_95" data-name="Ellipse 95" cx="9.5" cy="9.5" r="9.5" transform="translate(2292 -2199)" fill="#e32955"/>
    <circle id="Ellipse_96" data-name="Ellipse 96" cx="7.5" cy="7.5" r="7.5" transform="translate(2343 -2194)" fill="#00845e"/>
    <circle id="Ellipse_97" data-name="Ellipse 97" cx="4.5" cy="4.5" r="4.5" transform="translate(2346 -2191)" fill="#db9f01"/>
    <circle id="Ellipse_98" data-name="Ellipse 98" cx="12.5" cy="12.5" r="12.5" transform="translate(2341 -2245)" fill="#db9f01"/>
    <circle id="Ellipse_99" data-name="Ellipse 99" cx="9.5" cy="9.5" r="9.5" transform="translate(2344 -2242)" fill="#0065cb"/>
    <circle id="Ellipse_100" data-name="Ellipse 100" cx="5.5" cy="5.5" r="5.5" transform="translate(2414 -2226)" fill="#00845e"/>
    <circle id="Ellipse_101" data-name="Ellipse 101" cx="6" cy="6" r="6" transform="translate(2479 -2191)" fill="#0065cb"/>
    <circle id="Ellipse_102" data-name="Ellipse 102" cx="7.5" cy="7.5" r="7.5" transform="translate(2469 -2178)" fill="#00845e"/>
    <circle id="Ellipse_103" data-name="Ellipse 103" cx="4" cy="4" r="4" transform="translate(2473 -2174)" fill="#0065cb"/>
    <circle id="Ellipse_104" data-name="Ellipse 104" cx="8" cy="8" r="8" transform="translate(2457 -2138)" fill="#00845e"/>
    <circle id="Ellipse_105" data-name="Ellipse 105" cx="7.5" cy="7.5" r="7.5" transform="translate(2484 -2058)" fill="#db9f01"/>
    <circle id="Ellipse_106" data-name="Ellipse 106" cx="3.5" cy="3.5" r="3.5" transform="translate(2488 -2054)" fill="#e32955"/>
    <circle id="Ellipse_107" data-name="Ellipse 107" cx="5.5" cy="5.5" r="5.5" transform="translate(2534 -2058)" fill="#e32955"/>
    <circle id="Ellipse_108" data-name="Ellipse 108" cx="6.5" cy="6.5" r="6.5" transform="translate(2556 -2069)" fill="#e32955"/>
    <circle id="Ellipse_109" data-name="Ellipse 109" cx="4" cy="4" r="4" transform="translate(2559 -2066)" fill="#db9f01"/>
    <circle id="Ellipse_110" data-name="Ellipse 110" cx="10.5" cy="10.5" r="10.5" transform="translate(2507 -1863)" fill="#0065cb"/>
  </g>
</svg>
