<svg id="Group_2" data-name="Group 2" xmlns="http://www.w3.org/2000/svg" width="150" height="44" viewBox="0 0 150 44">
  <path id="useDB" d="M40.19,22.725a7.941,7.941,0,0,1-2.3-5.963V14.283a8.578,8.578,0,0,1,2.148-6.055A8.331,8.331,0,0,1,46.27,5.866a8.046,8.046,0,0,1,6.068,2.345,7.216,7.216,0,0,1,1.524,2.532,9.161,9.161,0,0,1,.51,3.086v3.178H42.5v.454a4.256,4.256,0,0,0,.886,2.789,3.664,3.664,0,0,0,2.955,1.192A4.326,4.326,0,0,0,48.8,20.76a3.3,3.3,0,0,0,1.279-1.624h4.156a6.651,6.651,0,0,1-2.676,4.108,8.88,8.88,0,0,1-5.217,1.62A8.75,8.75,0,0,1,40.19,22.725Zm3.871-12.292a4.813,4.813,0,0,0-.864,3.047l4-.148L50.7,13.2a4.268,4.268,0,0,0-.912-2.841,3.546,3.546,0,0,0-2.824-1.14A3.5,3.5,0,0,0,44.061,10.432Zm-24.68,8.634v-.314h4.191V19c0,1.571,1.432,2.514,3.666,2.514,1.991,0,3.457-.8,3.457-2.2,0-.873-.454-1.4-1.5-1.641l-5.377-1.222c-2.724-.629-4.155-2.026-4.155-4.784,0-3.737,3.038-5.8,7.333-5.8,4.365,0,7.194,2.2,7.194,5.8v.279H30.032v-.314c0-1.4-.873-2.375-2.968-2.375-1.921,0-2.969.7-2.969,1.991,0,.908.454,1.327,1.4,1.536l5.517,1.362c2.689.664,4.051,2.1,4.051,4.645,0,3.527-3.353,6.076-7.857,6.076C22.593,24.864,19.381,22.943,19.381,19.066ZM0,17.914V6.286H4.749V17.251c0,2.3,1.082,3.632,3.213,3.632,2.2,0,3.457-1.4,3.457-3.666V6.286h4.749V24.445h-4.54V22.279c-.838,1.537-2.934,2.585-5.273,2.585C2.27,24.864,0,22.035,0,17.914Zm80.353,6.53V0H91.318a7.48,7.48,0,0,1,5.1,1.715A5.814,5.814,0,0,1,98.3,6.181,6.136,6.136,0,0,1,95.229,11.8a5.681,5.681,0,0,1,3.213,1.834,5.862,5.862,0,0,1,1.327,3.928,6.511,6.511,0,0,1-.606,2.8,6.3,6.3,0,0,1-1.7,2.173,7.859,7.859,0,0,1-2.615,1.407,10.882,10.882,0,0,1-3.355.5ZM85.8,20.6h6.146a3.837,3.837,0,0,0,2.693-.9,3.259,3.259,0,0,0,.939-2.449,3.171,3.171,0,0,0-.969-2.418,3.91,3.91,0,0,0-2.7-.9H85.8Zm0-10.476h5.134A3.123,3.123,0,0,0,93.3,9.21a3.344,3.344,0,0,0,.816-2.331,2.974,2.974,0,0,0-.847-2.213A3.332,3.332,0,0,0,90.9,3.841H85.8ZM57.2,24.445V0h9.917a10.205,10.205,0,0,1,7.474,2.719A9.538,9.538,0,0,1,77.14,9.6v5.238a9.538,9.538,0,0,1-2.549,6.884,10.205,10.205,0,0,1-7.474,2.719Zm5.552-10.439v6.458h4.225a6.322,6.322,0,0,0,4.484-1.458,5.43,5.43,0,0,0,1.523-4.13V9.568a5.431,5.431,0,0,0-1.523-4.13,6.322,6.322,0,0,0-4.484-1.458H62.752Z" transform="translate(50.232 9.778)" fill="#fff"/>
  <path id="Path-4" d="M21.992,43.962C12.908,43.077-.662,30.582.025,22.091S12.719-.751,21.889.031,44.931,13.695,43.951,22,31.068,44.839,21.992,43.962Z" transform="translate(0)" fill="#ff3867"/>
  <g id="Group" transform="translate(9.696 9.486)">
    <g id="Group_8" data-name="Group 8" transform="translate(0)">
      <g id="database_1_" data-name="database (1)">
        <path id="Shape" d="M0,5C0,1.565,6.221,0,12,0S24,1.565,24,5s-6.221,5-12,5S0,8.435,0,5Z" fill="#fff"/>
        <path id="Path" d="M12.222,20.952C6.336,20.952,0,19.409,0,16.022V1.232a1.222,1.222,0,1,1,2.444,0v14.79c0,.634,3.361,2.465,9.778,2.465S22,16.656,22,16.022V1.232a1.222,1.222,0,1,1,2.444,0v14.79C24.444,19.409,18.108,20.952,12.222,20.952Z" transform="translate(0.082 3.27)" fill="#fff"/>
        <path id="Path-2" data-name="Path" d="M12.222,6.111C6.336,6.111,0,4.581,0,1.222a1.222,1.222,0,1,1,2.444,0c0,.628,3.361,2.444,9.778,2.444S22,1.85,22,1.222a1.222,1.222,0,0,1,2.444,0C24.444,4.581,18.108,6.111,12.222,6.111Z" transform="translate(0.082 10.254)" fill="#fff"/>
      </g>
      <circle id="Oval_Copy_3" data-name="Oval Copy 3" cx="2.444" cy="2.444" r="2.444" transform="translate(12.357 6.298)" fill="#ff3867" stroke="#fff" stroke-miterlimit="10" stroke-width="1.5"/>
    </g>
  </g>
</svg>
