<svg xmlns="http://www.w3.org/2000/svg" xmlns:xlink="http://www.w3.org/1999/xlink" width="100%" height="682" viewBox="0 0 1440 682"
preserveAspectRatio="none">
  <defs>
    <linearGradient id="linear-gradient" x1="0.187" y1="0.126" x2="1.012" y2="1" gradientUnits="objectBoundingBox">
      <stop offset="0" stop-color="#fff"/>
      <stop offset="1" stop-color="#e8e8e8"/>
    </linearGradient>
    <clipPath id="clip-path">
      <rect id="Rectangle_2" data-name="Rectangle 2" width="1440" height="682" transform="translate(-3281 -591.704)" fill="#fff" stroke="#707070" stroke-width="1"/>
    </clipPath>
  </defs>
  <g id="Group_8" data-name="Group 8" transform="translate(-1450 3533)">
    <g id="Group_7" data-name="Group 7" transform="translate(1450 -3656.5)">
      <rect id="Rectangle_3" data-name="Rectangle 3" width="1440" height="682" transform="translate(0 123.5)" fill="url(#linear-gradient)"/>
      <g id="Mask_Group_1" data-name="Mask Group 1" transform="translate(3281 715.204)" clip-path="url(#clip-path)">
        <g id="Group_2" data-name="Group 2" transform="translate(-3977.692 1348.843)">
          <g id="Group_1" data-name="Group 1" transform="translate(1333.426 -1911.555)">
            <path id="Path_1" data-name="Path 1" d="M1332.126-1290.5l95.521-54.594-44.358-55.052Z" transform="translate(-1332.126 1992.414)" fill="none" stroke="#b2acac" stroke-width="0.774"/>
            <path id="Path_2" data-name="Path 2" d="M1411.209-1343.457l106.01-45.647-95.116-22.933Z" transform="translate(-1315.688 1990.546)" fill="none" stroke="#b2acac" stroke-width="0.774"/>
            <path id="Path_3" data-name="Path 3" d="M1374.383-1386.355l57.354-13.532-3.031-62.366-37.421-25.651Z" transform="translate(-1323.343 1978.62)" fill="none" stroke="#b2acac" stroke-width="0.774"/>
            <path id="Path_4" data-name="Path 4" d="M1374.734-1376l53.631-76.305,32.048-65.167,111.295-36.37-26.623,110.319-84.672-71.763" transform="translate(-1323.27 1968.255)" fill="none" stroke="#b2acac" stroke-width="0.774"/>
            <path id="Path_5" data-name="Path 5" d="M1505.967-1390.1l-40.625,70.858,151.363-82.615Z" transform="translate(-1304.437 1992.145)" fill="none" stroke="#b2acac" stroke-width="0.774"/>
            <path id="Path_6" data-name="Path 6" d="M1411.209-1343.025l257.1,94.522-40.726-150.785,2.2-.251,133.724-15.246-35.089,117.612-95.49-99.177" transform="translate(-1315.688 1990.114)" fill="none" stroke="#b2acac" stroke-width="0.774"/>
            <path id="Path_7" data-name="Path 7" d="M1623.511-1242.217l59.447-47.937,81.647-26.69-43.914-91.2,27.853-46.727,40.119,68.944-64.4-22.22" transform="translate(-1271.561 1983.828)" fill="none" stroke="#b2acac" stroke-width="0.774"/>
            <path id="Path_8" data-name="Path 8" d="M1590.66-1382.845l4.325-34.783,131.7,20.162-9.778-63.8-117.322,43.642,34.8-87.748,84.152,44.106,61.781-61.568-24.614,78.943-37.167-14.777" transform="translate(-1278.389 1973.128)" fill="none" stroke="#b2acac" stroke-width="0.774"/>
            <path id="Path_9" data-name="Path 9" d="M1499.278-1389.555l-8.119-33.148,119.908,24.348" transform="translate(-1299.071 1988.869)" fill="none" stroke="#b2acac" stroke-width="0.774"/>
            <path id="Path_10" data-name="Path 10" d="M1463.526-1433.127l41.286,45.784" transform="translate(-1304.814 1987.23)" fill="none" stroke="#b2acac" stroke-width="0.774"/>
            <path id="Path_11" data-name="Path 11" d="M1422.141-1394.8l49.567-24.123-51.142-37.561,115.928,8.847-61.065,26.634,30.608,13.761,28.9-38.363,4.9-5.384,131.332-53.978,142.7-16.688" transform="translate(-1313.744 1973.314)" fill="none" stroke="#b2acac" stroke-width="0.774"/>
            <path id="Path_12" data-name="Path 12" d="M1524.077-1457.661l90.293,30.509-121.848,10.528" transform="translate(-1298.787 1983.374)" fill="none" stroke="#b2acac" stroke-width="0.774"/>
            <path id="Path_13" data-name="Path 13" d="M1355.236-1510.069l39.757,27.213,67.553-38.894Z" transform="translate(-1327.323 1973.299)" fill="none" stroke="#b2acac" stroke-width="0.774"/>
            <path id="Path_14" data-name="Path 14" d="M1432.073-1549.761l15.891,32.4,39.66-39.822Z" transform="translate(-1311.352 1967.73)" fill="none" stroke="#b2acac" stroke-width="0.774"/>
            <path id="Path_15" data-name="Path 15" d="M1355.236-1507.062l92.449-43.773" transform="translate(-1327.323 1968.727)" fill="none" stroke="#b2acac" stroke-width="0.774"/>
            <path id="Path_16" data-name="Path 16" d="M1478.065-1553.423l74.125,3.334,19.587-30.972-89.136,26.094" transform="translate(-1301.792 1963.976)" fill="none" stroke="#b2acac" stroke-width="0.774"/>
            <path id="Path_17" data-name="Path 17" d="M1560.354-1581.061l84.549,85.655L1539.65-1549.46" transform="translate(-1288.991 1963.976)" fill="none" stroke="#b2acac" stroke-width="0.774"/>
            <path id="Path_18" data-name="Path 18" d="M1558.892-1573.062l93.494-11.058-11.911,94.722,34.617-97.621-20.19,2.9-37.88-28.327-58.129,37.173,54.7-53.817,82.558-2.859-75.062,19.5" transform="translate(-1284.992 1955.977)" fill="none" stroke="#b2acac" stroke-width="0.774"/>
            <path id="Path_19" data-name="Path 19" d="M1610.687-1610.79l53.52,22.691,20.875-43.3,131.426,58.453-149.625-15.16,107.174,81.777,42.451-63.561,38.263,27.175-76.094,36.387,108.757-21.764-29.8-14.623,134.9-38.294-102.584,52.917,70.174,27.946L1927.1-1474.2l-39.663-51.5-39.349,96.371-74.026-74.477" transform="translate(-1274.226 1956.064)" fill="none" stroke="#b2acac" stroke-width="0.774"/>
            <path id="Path_20" data-name="Path 20" d="M1743.019-1312.334l24.334-66.216,41.465-27.992-80.535-43.285h95.081l-14.547,41.223,90.215-19.88-73.5-21.342,76.008-44.438-2.5,61.693,26.289,4.087-22.151-65.78,90.941,71.383-65.919-5.6L1909.3-1350.7l-10.268-74.629" transform="translate(-1249.784 1977.62)" fill="none" stroke="#b2acac" stroke-width="0.774"/>
            <path id="Path_21" data-name="Path 21" d="M1674.915-1304.375l21.643,24,57.1-49.761,165.117-36.362,5.524,154.121L1755.221-1328.39" transform="translate(-1260.877 1997.703)" fill="none" stroke="#b2acac" stroke-width="0.774"/>
            <path id="Path_22" data-name="Path 22" d="M1785.617-1570.279l145.2-79.376,26.962,73.443Z" transform="translate(-1237.867 1953.194)" fill="none" stroke="#b2acac" stroke-width="0.774"/>
            <path id="Path_23" data-name="Path 23" d="M1781.871-1563.634l44.8-124.42,106,49.371,11.657-35.9-113.067-13.468,59.729-30.921,48.554,42.011,12.146-6.934,77.851,45.215h-90l82.735,61.139-65.914,10.473h43.808L2032.6-1513.3l-72.972-50.329,58.3,64-94.2,14.247,32.639-78.249" transform="translate(-1238.645 1942.297)" fill="none" stroke="#b2acac" stroke-width="0.774"/>
            <path id="Path_24" data-name="Path 24" d="M1902.5-1517.116l56.1,97.8,53.5-91.161Z" transform="translate(-1213.573 1974.028)" fill="none" stroke="#b2acac" stroke-width="0.774"/>
            <path id="Path_25" data-name="Path 25" d="M1693.239-1615.343l68.02-45.7,60.111,107.955v-131.955l-55.852,21.72-10.3-95.858,61.747,71.643,49.536-34.631-109-37.009-169.333,67.649,20.471,82.932" transform="translate(-1278.909 1935.976)" fill="none" stroke="#b2acac" stroke-width="0.774"/>
            <path id="Path_26" data-name="Path 26" d="M1762.689-1656.6l-80.167-69.514,7.53,119.117-101.9-81.157,21.087-64,70.592,26.049,6.025-67.267-74,41.223" transform="translate(-1278.909 1930.602)" fill="none" stroke="#b2acac" stroke-width="0.774"/>
            <path id="Path_27" data-name="Path 27" d="M1738.461-1740.757,1714.116-1878.7,1669.8-1776.346l71.906,39.993,123.11-160.875L1718.081-1878.7l-35.988-11.087L1669.8-1779.551" transform="translate(-1261.94 1914.277)" fill="none" stroke="#b2acac" stroke-width="0.774"/>
            <path id="Path_28" data-name="Path 28" d="M1841.524-1897.229l-12.963,194.11,116.353-42.788-103.391-151.321,177.855,109.959-69.575,38.8v87.3l34.576-84.745-39.467-2.556-55.736,58.385-60.617-10.07-3.491,37.069-43.209,1.917" transform="translate(-1238.648 1914.277)" fill="none" stroke="#b2acac" stroke-width="0.774"/>
            <path id="Path_29" data-name="Path 29" d="M1871.445-1718.976l61.375,33.8" transform="translate(-1220.027 1942.297)" fill="none" stroke="#b2acac" stroke-width="0.774"/>
            <path id="Path_30" data-name="Path 30" d="M1950.773-1767.5l41.68,136.1" transform="translate(-1203.539 1934.669)" fill="none" stroke="#b2acac" stroke-width="0.774"/>
            <path id="Path_31" data-name="Path 31" d="M1950.773-1764.411l35.038-36.2,69.8,13.986-104.833,24.42" transform="translate(-1203.539 1929.465)" fill="none" stroke="#b2acac" stroke-width="0.774"/>
            <path id="Path_32" data-name="Path 32" d="M1916.281-1679.483l84.123,35.7" transform="translate(-1210.708 1948.505)" fill="none" stroke="#b2acac" stroke-width="0.774"/>
            <path id="Path_33" data-name="Path 33" d="M1833.308-1894.913l19.627-17.048,175.537,5.136" transform="translate(-1227.954 1911.961)" fill="none" stroke="#b2acac" stroke-width="0.774"/>
            <path id="Path_34" data-name="Path 34" d="M2007.443-1785l-157.772-125.988" transform="translate(-1224.553 1912.114)" fill="none" stroke="#b2acac" stroke-width="0.774"/>
          </g>
          <ellipse id="Ellipse_1" data-name="Ellipse 1" cx="7.942" cy="7.609" rx="7.942" ry="7.609" transform="translate(1325.872 -1218.119)" fill="#00845e"/>
          <ellipse id="Ellipse_2" data-name="Ellipse 2" cx="6.073" cy="5.818" rx="6.073" ry="5.818" transform="translate(1380.063 -1324.642)" fill="#e32955"/>
          <ellipse id="Ellipse_3" data-name="Ellipse 3" cx="8.876" cy="8.504" rx="8.876" ry="8.504" transform="translate(1419.306 -1272.723)" fill="#e32955"/>
          <ellipse id="Ellipse_4" data-name="Ellipse 4" cx="5.139" cy="4.923" rx="5.139" ry="4.923" transform="translate(1423.043 -1269.142)" fill="#0065cb"/>
          <ellipse id="Ellipse_5" data-name="Ellipse 5" cx="7.942" cy="7.609" rx="7.942" ry="7.609" transform="translate(1485.644 -1246.764)" fill="#00845e"/>
          <ellipse id="Ellipse_6" data-name="Ellipse 6" cx="6.073" cy="5.818" rx="6.073" ry="5.818" transform="translate(1487.512 -1244.973)" fill="#db9f01"/>
          <ellipse id="Ellipse_7" data-name="Ellipse 7" cx="6.54" cy="6.266" rx="6.54" ry="6.266" transform="translate(1436.124 -1338.069)" fill="#00845e"/>
          <ellipse id="Ellipse_8" data-name="Ellipse 8" cx="3.737" cy="3.581" rx="3.737" ry="3.581" transform="translate(1438.927 -1335.384)" fill="#db9f01"/>
          <ellipse id="Ellipse_9" data-name="Ellipse 9" cx="5.606" cy="5.371" rx="5.606" ry="5.371" transform="translate(1433.321 -1399.834)" fill="#db9f01"/>
          <ellipse id="Ellipse_10" data-name="Ellipse 10" cx="4.672" cy="4.476" rx="4.672" ry="4.476" transform="translate(1396.881 -1424.899)" fill="#db9f01"/>
          <ellipse id="Ellipse_11" data-name="Ellipse 11" cx="1.869" cy="1.79" rx="1.869" ry="1.79" transform="translate(1399.684 -1422.213)" fill="#00845e"/>
          <ellipse id="Ellipse_12" data-name="Ellipse 12" cx="7.475" cy="7.161" rx="7.475" ry="7.161" transform="translate(1352.033 -1455.334)" fill="#0065cb"/>
          <ellipse id="Ellipse_13" data-name="Ellipse 13" cx="4.672" cy="4.476" rx="4.672" ry="4.476" transform="translate(1465.088 -1465.181)" fill="#00845e"/>
          <ellipse id="Ellipse_14" data-name="Ellipse 14" cx="6.073" cy="5.818" rx="6.073" ry="5.818" transform="translate(1447.336 -1500.091)" fill="#0065cb"/>
          <ellipse id="Ellipse_15" data-name="Ellipse 15" cx="3.27" cy="3.133" rx="3.27" ry="3.133" transform="translate(1450.139 -1497.406)" fill="#db9f01"/>
          <ellipse id="Ellipse_16" data-name="Ellipse 16" cx="5.606" cy="5.371" rx="5.606" ry="5.371" transform="translate(1504.33 -1507.253)" fill="#e32955"/>
          <ellipse id="Ellipse_17" data-name="Ellipse 17" cx="4.205" cy="4.028" rx="4.205" ry="4.028" transform="translate(1506.199 -1505.462)" fill="#00845e"/>
          <ellipse id="Ellipse_18" data-name="Ellipse 18" cx="1.869" cy="1.79" rx="1.869" ry="1.79" transform="translate(1508.068 -1503.672)" fill="#0065cb"/>
          <ellipse id="Ellipse_19" data-name="Ellipse 19" cx="6.073" cy="5.818" rx="6.073" ry="5.818" transform="translate(1485.644 -1363.133)" fill="#db9f01"/>
          <ellipse id="Ellipse_20" data-name="Ellipse 20" cx="4.205" cy="4.028" rx="4.205" ry="4.028" transform="translate(1487.512 -1361.343)" fill="#00845e"/>
          <ellipse id="Ellipse_21" data-name="Ellipse 21" cx="7.475" cy="7.161" rx="7.475" ry="7.161" transform="translate(1547.31 -1393.568)" fill="#db9f01"/>
          <ellipse id="Ellipse_22" data-name="Ellipse 22" cx="6.54" cy="6.266" rx="6.54" ry="6.266" transform="translate(1519.28 -1350.601)" fill="#db9f01"/>
          <ellipse id="Ellipse_23" data-name="Ellipse 23" cx="4.672" cy="4.476" rx="4.672" ry="4.476" transform="translate(1521.148 -1348.811)" fill="#e32955"/>
          <ellipse id="Ellipse_24" data-name="Ellipse 24" cx="6.54" cy="6.266" rx="6.54" ry="6.266" transform="translate(1526.755 -1316.585)" fill="#0065cb"/>
          <ellipse id="Ellipse_25" data-name="Ellipse 25" cx="9.343" cy="8.952" rx="9.343" ry="8.952" transform="translate(1637.007 -1330.013)" fill="#00845e"/>
          <ellipse id="Ellipse_26" data-name="Ellipse 26" cx="8.409" cy="8.056" rx="8.409" ry="8.056" transform="translate(1736.981 -1227.965)" fill="#0065cb"/>
          <ellipse id="Ellipse_27" data-name="Ellipse 27" cx="9.343" cy="8.952" rx="9.343" ry="8.952" transform="translate(1759.405 -1203.796)" fill="#0065cb"/>
          <ellipse id="Ellipse_28" data-name="Ellipse 28" cx="11.212" cy="10.742" rx="11.212" ry="10.742" transform="translate(1638.875 -1364.924)" fill="#0065cb"/>
          <ellipse id="Ellipse_29" data-name="Ellipse 29" cx="5.139" cy="4.923" rx="5.139" ry="4.923" transform="translate(1645.416 -1358.657)" fill="#db9f01"/>
          <ellipse id="Ellipse_30" data-name="Ellipse 30" cx="10.745" cy="10.294" rx="10.745" ry="10.294" transform="translate(1816.4 -1253.925)" fill="#e32955"/>
          <ellipse id="Ellipse_31" data-name="Ellipse 31" cx="7.008" cy="6.714" rx="7.008" ry="6.714" transform="translate(1844.43 -1318.376)" fill="#00845e"/>
          <ellipse id="Ellipse_32" data-name="Ellipse 32" cx="4.205" cy="4.028" rx="4.205" ry="4.028" transform="translate(1847.233 -1315.69)" fill="#0065cb"/>
          <ellipse id="Ellipse_33" data-name="Ellipse 33" cx="6.54" cy="6.266" rx="6.54" ry="6.266" transform="translate(1775.289 -1341.65)" fill="#0065cb"/>
          <ellipse id="Ellipse_34" data-name="Ellipse 34" cx="3.27" cy="3.133" rx="3.27" ry="3.133" transform="translate(1779.026 -1338.069)" fill="#e32955"/>
          <ellipse id="Ellipse_35" data-name="Ellipse 35" cx="3.737" cy="3.581" rx="3.737" ry="3.581" transform="translate(1767.814 -1402.52)" fill="#0065cb"/>
          <ellipse id="Ellipse_36" data-name="Ellipse 36" cx="7.475" cy="7.161" rx="7.475" ry="7.161" transform="translate(1681.855 -1449.963)" fill="#00845e"/>
          <g id="Ellipse_37" data-name="Ellipse 37" transform="translate(1683.724 -1448.173)" fill="none" stroke="#e32955" stroke-width="1.547">
            <ellipse cx="6.073" cy="5.818" rx="6.073" ry="5.818" stroke="none"/>
            <ellipse cx="6.073" cy="5.818" rx="5.3" ry="5.045" fill="none"/>
          </g>
          <ellipse id="Ellipse_38" data-name="Ellipse 38" cx="6.073" cy="5.818" rx="6.073" ry="5.818" transform="translate(1694.936 -1544.849)" fill="#0065cb"/>
          <ellipse id="Ellipse_39" data-name="Ellipse 39" cx="4.672" cy="4.476" rx="4.672" ry="4.476" transform="translate(1718.294 -1548.43)" fill="#e32955"/>
          <ellipse id="Ellipse_40" data-name="Ellipse 40" cx="3.737" cy="3.581" rx="3.737" ry="3.581" transform="translate(1719.228 -1547.534)" fill="#db9f01"/>
          <ellipse id="Ellipse_41" data-name="Ellipse 41" cx="2.803" cy="2.685" rx="2.803" ry="2.685" transform="translate(1720.163 -1546.639)" fill="#0065cb"/>
          <ellipse id="Ellipse_42" data-name="Ellipse 42" cx="5.139" cy="4.923" rx="5.139" ry="4.923" transform="translate(1579.078 -1502.777)" fill="#0065cb"/>
          <ellipse id="Ellipse_45" data-name="Ellipse 45" cx="8.876" cy="8.504" rx="8.876" ry="8.504" transform="translate(1594.961 -1537.688)" fill="#0065cb"/>
          <g id="Ellipse_46" data-name="Ellipse 46" transform="translate(1597.764 -1535.002)" fill="none" stroke="#e32955" stroke-width="1.547">
            <ellipse cx="6.073" cy="5.818" rx="6.073" ry="5.818" stroke="none"/>
            <ellipse cx="6.073" cy="5.818" rx="5.3" ry="5.045" fill="none"/>
          </g>
          <ellipse id="Ellipse_43" data-name="Ellipse 43" cx="2.336" cy="2.238" rx="2.336" ry="2.238" transform="translate(1601.502 -1531.422)" fill="#00845e"/>
          <ellipse id="Ellipse_49" data-name="Ellipse 49" cx="7.475" cy="7.161" rx="7.475" ry="7.161" transform="translate(1657.562 -1575.284)" fill="#db9f01"/>
          <ellipse id="Ellipse_48" data-name="Ellipse 48" cx="4.672" cy="4.476" rx="4.672" ry="4.476" transform="translate(1660.365 -1572.599)" fill="#00845e"/>
          <ellipse id="Ellipse_47" data-name="Ellipse 47" cx="3.737" cy="3.581" rx="3.737" ry="3.581" transform="translate(1661.299 -1571.703)" fill="#0065cb"/>
          <ellipse id="Ellipse_50" data-name="Ellipse 50" cx="6.54" cy="6.266" rx="6.54" ry="6.266" transform="translate(1656.628 -1589.606)" fill="#00845e"/>
          <ellipse id="Ellipse_52" data-name="Ellipse 52" cx="6.073" cy="5.818" rx="6.073" ry="5.818" transform="translate(1804.253 -1389.093)" fill="#00845e"/>
          <ellipse id="Ellipse_51" data-name="Ellipse 51" cx="3.27" cy="3.133" rx="3.27" ry="3.133" transform="translate(1807.056 -1386.407)" fill="#e32955"/>
          <ellipse id="Ellipse_54" data-name="Ellipse 54" cx="8.409" cy="8.056" rx="8.409" ry="8.056" transform="translate(1898.621 -1393.568)" fill="#0065cb"/>
          <ellipse id="Ellipse_53" data-name="Ellipse 53" cx="7.475" cy="7.161" rx="7.475" ry="7.161" transform="translate(1899.556 -1392.673)" fill="#e32955"/>
          <ellipse id="Ellipse_55" data-name="Ellipse 55" cx="4.205" cy="4.028" rx="4.205" ry="4.028" transform="translate(1887.409 -1344.335)" fill="#0065cb"/>
          <ellipse id="Ellipse_56" data-name="Ellipse 56" cx="3.27" cy="3.133" rx="3.27" ry="3.133" transform="translate(1888.344 -1343.44)" fill="#00845e"/>
          <ellipse id="Ellipse_57" data-name="Ellipse 57" cx="2.336" cy="2.238" rx="2.336" ry="2.238" transform="translate(1889.278 -1342.545)" fill="#e32955"/>
          <ellipse id="Ellipse_58" data-name="Ellipse 58" cx="7.475" cy="7.161" rx="7.475" ry="7.161" transform="translate(1827.612 -1467.866)" fill="#00845e"/>
          <ellipse id="Ellipse_59" data-name="Ellipse 59" cx="5.606" cy="5.371" rx="5.606" ry="5.371" transform="translate(1829.48 -1466.076)" fill="#db9f01"/>
          <ellipse id="Ellipse_60" data-name="Ellipse 60" cx="9.811" cy="9.399" rx="9.811" ry="9.399" transform="translate(1865.92 -1536.793)" fill="#db9f01"/>
          <ellipse id="Ellipse_61" data-name="Ellipse 61" cx="6.073" cy="5.818" rx="6.073" ry="5.818" transform="translate(1908.899 -1503.672)" fill="#db9f01"/>
          <ellipse id="Ellipse_62" data-name="Ellipse 62" cx="8.876" cy="8.504" rx="8.876" ry="8.504" transform="translate(1938.798 -1492.93)" fill="#db9f01"/>
          <ellipse id="Ellipse_63" data-name="Ellipse 63" cx="5.606" cy="5.371" rx="5.606" ry="5.371" transform="translate(1942.535 -1489.35)" fill="#00845e"/>
          <ellipse id="Ellipse_64" data-name="Ellipse 64" cx="5.606" cy="5.371" rx="5.606" ry="5.371" transform="translate(1980.843 -1434.745)" fill="#00845e"/>
          <ellipse id="Ellipse_65" data-name="Ellipse 65" cx="8.409" cy="8.056" rx="8.409" ry="8.056" transform="translate(2013.545 -1461.6)" fill="#0065cb"/>
          <ellipse id="Ellipse_66" data-name="Ellipse 66" cx="10.278" cy="9.847" rx="10.278" ry="9.847" transform="translate(1980.843 -1290.626)" fill="#0065cb"/>
          <ellipse id="Ellipse_67" data-name="Ellipse 67" cx="5.606" cy="5.371" rx="5.606" ry="5.371" transform="translate(1985.515 -1286.15)" fill="#e32955"/>
          <ellipse id="Ellipse_68" data-name="Ellipse 68" cx="2.803" cy="2.685" rx="2.803" ry="2.685" transform="translate(1988.318 -1283.465)" fill="#00845e"/>
          <ellipse id="Ellipse_69" data-name="Ellipse 69" cx="4.672" cy="4.476" rx="4.672" ry="4.476" transform="translate(2006.07 -1366.714)" fill="#0065cb"/>
          <ellipse id="Ellipse_70" data-name="Ellipse 70" cx="7.942" cy="7.609" rx="7.942" ry="7.609" transform="translate(1974.303 -1370.295)" fill="#00845e"/>
          <g id="Ellipse_71" data-name="Ellipse 71" transform="translate(1977.106 -1367.609)" fill="none" stroke="#e32955" stroke-width="1.547">
            <ellipse cx="5.139" cy="4.923" rx="5.139" ry="4.923" stroke="none"/>
            <ellipse cx="5.139" cy="4.923" rx="4.365" ry="4.15" fill="none"/>
          </g>
          <ellipse id="Ellipse_72" data-name="Ellipse 72" cx="4.205" cy="4.028" rx="4.205" ry="4.028" transform="translate(1978.04 -1366.714)" fill="#0065cb"/>
          <ellipse id="Ellipse_73" data-name="Ellipse 73" cx="8.409" cy="8.056" rx="8.409" ry="8.056" transform="translate(1736.981 -1595.873)" fill="#00845e"/>
          <ellipse id="Ellipse_74" data-name="Ellipse 74" cx="7.475" cy="7.161" rx="7.475" ry="7.161" transform="translate(1737.915 -1594.977)" fill="#db9f01"/>
          <ellipse id="Ellipse_75" data-name="Ellipse 75" cx="4.205" cy="4.028" rx="4.205" ry="4.028" transform="translate(1741.653 -1591.397)" fill="#00845e"/>
          <ellipse id="Ellipse_76" data-name="Ellipse 76" cx="2.336" cy="2.238" rx="2.336" ry="2.238" transform="translate(1743.521 -1589.606)" fill="#e32955"/>
          <ellipse id="Ellipse_77" data-name="Ellipse 77" cx="7.008" cy="6.714" rx="7.008" ry="6.714" transform="translate(1635.138 -1674.646)" fill="#db9f01"/>
          <ellipse id="Ellipse_78" data-name="Ellipse 78" cx="4.205" cy="4.028" rx="4.205" ry="4.028" transform="translate(1637.941 -1671.96)" fill="#0065cb"/>
          <ellipse id="Ellipse_79" data-name="Ellipse 79" cx="3.27" cy="3.133" rx="3.27" ry="3.133" transform="translate(1638.875 -1671.065)" fill="#00845e"/>
          <ellipse id="Ellipse_80" data-name="Ellipse 80" cx="5.606" cy="5.371" rx="5.606" ry="5.371" transform="translate(1658.496 -1736.411)" fill="#e32955"/>
          <ellipse id="Ellipse_81" data-name="Ellipse 81" cx="5.139" cy="4.923" rx="5.139" ry="4.923" transform="translate(1731.375 -1709.557)" fill="#db9f01"/>
          <ellipse id="Ellipse_82" data-name="Ellipse 82" cx="8.409" cy="8.056" rx="8.409" ry="8.056" transform="translate(1733.243 -1782.064)" fill="#0065cb"/>
          <ellipse id="Ellipse_83" data-name="Ellipse 83" cx="5.139" cy="4.923" rx="5.139" ry="4.923" transform="translate(1736.981 -1778.483)" fill="#00845e"/>
          <ellipse id="Ellipse_84" data-name="Ellipse 84" cx="8.409" cy="8.056" rx="8.409" ry="8.056" transform="translate(1803.319 -1740.887)" fill="#0065cb"/>
          <ellipse id="Ellipse_85" data-name="Ellipse 85" cx="6.073" cy="5.818" rx="6.073" ry="5.818" transform="translate(1749.127 -1891.272)" fill="#0065cb"/>
          <ellipse id="Ellipse_86" data-name="Ellipse 86" cx="6.073" cy="5.818" rx="6.073" ry="5.818" transform="translate(1779.026 -1881.426)" fill="#0065cb"/>
          <ellipse id="Ellipse_87" data-name="Ellipse 87" cx="5.139" cy="4.923" rx="5.139" ry="4.923" transform="translate(1779.96 -1881.426)" fill="#00845e"/>
          <ellipse id="Ellipse_88" data-name="Ellipse 88" cx="6.54" cy="6.266" rx="6.54" ry="6.266" transform="translate(1929.455 -1900.224)" fill="#0065cb"/>
          <ellipse id="Ellipse_89" data-name="Ellipse 89" cx="4.205" cy="4.028" rx="4.205" ry="4.028" transform="translate(1931.323 -1898.434)" fill="#db9f01"/>
          <ellipse id="Ellipse_90" data-name="Ellipse 90" cx="3.27" cy="3.133" rx="3.27" ry="3.133" transform="translate(1955.616 -1914.546)" fill="#00845e"/>
          <ellipse id="Ellipse_91" data-name="Ellipse 91" cx="6.54" cy="6.266" rx="6.54" ry="6.266" transform="translate(2034.101 -1750.734)" fill="#00845e"/>
          <ellipse id="Ellipse_92" data-name="Ellipse 92" cx="4.205" cy="4.028" rx="4.205" ry="4.028" transform="translate(2075.211 -1748.048)" fill="#00845e"/>
          <g id="Ellipse_93" data-name="Ellipse 93" transform="translate(2109.782 -1791.911)" fill="#00845e" stroke="#0065cb" stroke-width="0.774">
            <ellipse cx="8.409" cy="8.056" rx="8.409" ry="8.056" stroke="none"/>
            <ellipse cx="8.409" cy="8.056" rx="8.022" ry="7.67" fill="none"/>
          </g>
          <g id="Ellipse_94" data-name="Ellipse 94" transform="translate(1811.728 -1642.42)" fill="#e32955" stroke="#e32955" stroke-width="0.774">
            <ellipse cx="6.073" cy="5.818" rx="6.073" ry="5.818" stroke="none"/>
            <ellipse cx="6.073" cy="5.818" rx="5.686" ry="5.432" fill="none"/>
          </g>
          <ellipse id="Ellipse_95" data-name="Ellipse 95" cx="8.876" cy="8.504" rx="8.876" ry="8.504" transform="translate(1865.92 -1667.485)" fill="#e32955"/>
          <ellipse id="Ellipse_96" data-name="Ellipse 96" cx="7.008" cy="6.714" rx="7.008" ry="6.714" transform="translate(1913.571 -1663.009)" fill="#00845e"/>
          <ellipse id="Ellipse_97" data-name="Ellipse 97" cx="4.205" cy="4.028" rx="4.205" ry="4.028" transform="translate(1916.374 -1660.323)" fill="#db9f01"/>
          <ellipse id="Ellipse_98" data-name="Ellipse 98" cx="11.679" cy="11.189" rx="11.679" ry="11.189" transform="translate(1911.702 -1708.662)" fill="#db9f01"/>
          <ellipse id="Ellipse_99" data-name="Ellipse 99" cx="8.876" cy="8.504" rx="8.876" ry="8.504" transform="translate(1914.505 -1705.976)" fill="#0065cb"/>
          <ellipse id="Ellipse_100" data-name="Ellipse 100" cx="5.139" cy="4.923" rx="5.139" ry="4.923" transform="translate(1979.909 -1691.654)" fill="#00845e"/>
          <ellipse id="Ellipse_101" data-name="Ellipse 101" cx="5.606" cy="5.371" rx="5.606" ry="5.371" transform="translate(2040.641 -1660.323)" fill="#0065cb"/>
          <ellipse id="Ellipse_102" data-name="Ellipse 102" cx="7.008" cy="6.714" rx="7.008" ry="6.714" transform="translate(2031.298 -1648.687)" fill="#00845e"/>
          <ellipse id="Ellipse_103" data-name="Ellipse 103" cx="3.737" cy="3.581" rx="3.737" ry="3.581" transform="translate(2035.035 -1645.106)" fill="#0065cb"/>
          <ellipse id="Ellipse_104" data-name="Ellipse 104" cx="7.475" cy="7.161" rx="7.475" ry="7.161" transform="translate(2020.085 -1612.88)" fill="#00845e"/>
          <ellipse id="Ellipse_105" data-name="Ellipse 105" cx="7.008" cy="6.714" rx="7.008" ry="6.714" transform="translate(2045.313 -1541.268)" fill="#db9f01"/>
          <ellipse id="Ellipse_106" data-name="Ellipse 106" cx="3.27" cy="3.133" rx="3.27" ry="3.133" transform="translate(2049.05 -1537.688)" fill="#e32955"/>
          <ellipse id="Ellipse_107" data-name="Ellipse 107" cx="5.139" cy="4.923" rx="5.139" ry="4.923" transform="translate(2092.03 -1541.268)" fill="#e32955"/>
          <ellipse id="Ellipse_108" data-name="Ellipse 108" cx="6.073" cy="5.818" rx="6.073" ry="5.818" transform="translate(2112.585 -1551.115)" fill="#e32955"/>
          <ellipse id="Ellipse_109" data-name="Ellipse 109" cx="3.737" cy="3.581" rx="3.737" ry="3.581" transform="translate(2115.388 -1548.43)" fill="#db9f01"/>
          <ellipse id="Ellipse_110" data-name="Ellipse 110" cx="9.811" cy="9.399" rx="9.811" ry="9.399" transform="translate(2066.802 -1366.714)" fill="#0065cb"/>
        </g>
      </g>
    </g>
  </g>
</svg>
