<svg xmlns="http://www.w3.org/2000/svg" xmlns:xlink="http://www.w3.org/1999/xlink" width="1440" height="682" viewBox="0 0 1440 682" preserveAspectRatio="none">
  <defs>
    <linearGradient id="linear-gradient" x1="0.187" y1="0.126" x2="1.012" y2="1" gradientUnits="objectBoundingBox">
      <stop offset="0" stop-color="#fff"/>
      <stop offset="1" stop-color="#e8e8e8"/>
    </linearGradient>
    <clipPath id="clip-path">
      <rect id="Rectangle_2" data-name="Rectangle 2" width="1440" height="682" transform="translate(-3281 -591.704)" fill="#fff" stroke="#707070" stroke-width="1"/>
    </clipPath>
  </defs>
  <g id="Group_15" data-name="Group 15" transform="translate(0 -123.5)">
    <rect id="Rectangle_3" data-name="Rectangle 3" width="1440" height="682" transform="translate(0 123.5)" fill="url(#linear-gradient)"/>
    <g id="Mask_Group_1" data-name="Mask Group 1" transform="translate(3281 715.204)" clip-path="url(#clip-path)">
      <g id="Group_2" data-name="Group 2" transform="translate(-3985.462 1322.843)">
        <g id="Group_1" data-name="Group 1" transform="translate(1333.731 -1911.537)">
          <path id="Path_1" data-name="Path 1" d="M1332.126-1289.843l99.385-54.923-46.152-55.383Z" transform="translate(-1332.126 1995.976)" fill="none" stroke="#b2acac" stroke-width="0.774"/>
          <path id="Path_2" data-name="Path 2" d="M1411.209-1343.045l110.3-45.921-98.963-23.071Z" transform="translate(-1311.824 1994.025)" fill="none" stroke="#b2acac" stroke-width="0.774"/>
          <path id="Path_3" data-name="Path 3" d="M1374.383-1385.744l59.673-13.613L1430.9-1462.1l-38.935-25.806Z" transform="translate(-1321.278 1981.571)" fill="none" stroke="#b2acac" stroke-width="0.774"/>
          <path id="Path_4" data-name="Path 4" d="M1374.733-1374.929l55.8-76.764,33.344-65.559,115.8-36.589-27.7,110.983-88.1-72.194" transform="translate(-1321.188 1970.747)" fill="none" stroke="#b2acac" stroke-width="0.774"/>
          <path id="Path_5" data-name="Path 5" d="M1507.61-1390.033l-42.268,71.284,157.485-83.111Z" transform="translate(-1297.928 1995.695)" fill="none" stroke="#b2acac" stroke-width="0.774"/>
          <path id="Path_6" data-name="Path 6" d="M1411.209-1342.594l267.5,95.091-42.373-151.692,2.292-.253,139.134-15.338-36.508,118.319-99.352-99.774" transform="translate(-1311.824 1993.574)" fill="none" stroke="#b2acac" stroke-width="0.774"/>
          <path id="Path_7" data-name="Path 7" d="M1623.51-1240.938l61.852-48.225,84.95-26.85-45.69-91.749,28.979-47.008,41.741,69.359-67.01-22.354" transform="translate(-1257.325 1987.01)" fill="none" stroke="#b2acac" stroke-width="0.774"/>
          <path id="Path_8" data-name="Path 8" d="M1590.659-1382l4.5-34.992,137.023,20.284-10.173-64.188L1599.941-1417l36.205-88.276L1723.7-1460.9l64.28-61.938-25.61,79.418-38.67-14.866" transform="translate(-1265.758 1975.836)" fill="none" stroke="#b2acac" stroke-width="0.774"/>
          <path id="Path_9" data-name="Path 9" d="M1499.606-1389.356l-8.448-33.348,124.759,24.495" transform="translate(-1291.301 1992.274)" fill="none" stroke="#b2acac" stroke-width="0.774"/>
          <path id="Path_10" data-name="Path 10" d="M1463.526-1433.126l42.956,46.06" transform="translate(-1298.394 1990.563)" fill="none" stroke="#b2acac" stroke-width="0.774"/>
          <path id="Path_11" data-name="Path 11" d="M1422.2-1394.042l51.572-24.268-53.211-37.786,120.617,8.9-63.535,26.795,31.846,13.844,30.065-38.593,5.1-5.417,136.645-54.3,148.477-16.789" transform="translate(-1309.423 1976.03)" fill="none" stroke="#b2acac" stroke-width="0.774"/>
          <path id="Path_12" data-name="Path 12" d="M1525.353-1457.661l93.946,30.693-126.777,10.591" transform="translate(-1290.951 1986.535)" fill="none" stroke="#b2acac" stroke-width="0.774"/>
          <path id="Path_13" data-name="Path 13" d="M1355.236-1510l41.365,27.376,70.285-39.128Z" transform="translate(-1326.193 1976.015)" fill="none" stroke="#b2acac" stroke-width="0.774"/>
          <path id="Path_14" data-name="Path 14" d="M1432.073-1549.716l16.534,32.6,41.264-40.061Z" transform="translate(-1306.469 1970.199)" fill="none" stroke="#b2acac" stroke-width="0.774"/>
          <path id="Path_15" data-name="Path 15" d="M1355.236-1506.8l96.188-44.036" transform="translate(-1326.193 1971.241)" fill="none" stroke="#b2acac" stroke-width="0.774"/>
          <path id="Path_16" data-name="Path 16" d="M1478.064-1553.257l77.123,3.354,20.38-31.158-92.741,26.251" transform="translate(-1294.662 1966.279)" fill="none" stroke="#b2acac" stroke-width="0.774"/>
          <path id="Path_17" data-name="Path 17" d="M1561.192-1581.061l87.969,86.17-109.511-54.379" transform="translate(-1278.853 1966.279)" fill="none" stroke="#b2acac" stroke-width="0.774"/>
          <path id="Path_18" data-name="Path 18" d="M1558.892-1572.707l97.276-11.125-12.393,95.292,36.018-98.208-21.007,2.915-39.412-28.5-60.48,37.4,56.908-54.14,85.9-2.876-78.1,19.62" transform="translate(-1273.913 1957.925)" fill="none" stroke="#b2acac" stroke-width="0.774"/>
          <path id="Path_19" data-name="Path 19" d="M1610.686-1610.666l55.685,22.828,21.72-43.556,136.742,58.8-155.677-15.251,111.509,82.269,44.168-63.943,39.811,27.339-79.171,36.606,113.156-21.895-31.006-14.711,140.352-38.524-106.734,53.235,73.013,28.114-34.356,26.1-41.267-51.811-40.94,96.951-77.02-74.924" transform="translate(-1260.617 1958.017)" fill="none" stroke="#b2acac" stroke-width="0.774"/>
          <path id="Path_20" data-name="Path 20" d="M1743.614-1311.24l25.318-66.615,43.142-28.161-83.792-43.545h98.927l-15.135,41.47,93.864-20-76.476-21.471,79.082-44.705-2.605,62.064,27.353,4.112-23.048-66.176,94.62,71.812-68.585-5.636-19.655,78.256-10.684-75.078" transform="translate(-1230.429 1980.527)" fill="none" stroke="#b2acac" stroke-width="0.774"/>
          <path id="Path_21" data-name="Path 21" d="M1674.915-1304l22.518,24.14,59.413-50.061,171.8-36.581,5.747,155.048-175.92-116.7" transform="translate(-1244.129 2001.499)" fill="none" stroke="#b2acac" stroke-width="0.774"/>
          <path id="Path_22" data-name="Path 22" d="M1785.616-1569.8l151.069-79.854,28.053,73.885Z" transform="translate(-1215.711 1955.019)" fill="none" stroke="#b2acac" stroke-width="0.774"/>
          <path id="Path_23" data-name="Path 23" d="M1781.871-1562.7l46.61-125.168,110.288,49.668,12.128-36.118-117.641-13.549,62.145-31.107,50.518,42.264,12.638-6.976,81,45.487h-93.641L2032-1576.693l-68.58,10.536H2009l33.74,54.091-75.923-50.632,60.661,64.388-98.013,14.333,33.959-78.719" transform="translate(-1216.672 1943.64)" fill="none" stroke="#b2acac" stroke-width="0.774"/>
          <path id="Path_24" data-name="Path 24" d="M1902.5-1517.116l58.368,98.384,55.663-91.709Z" transform="translate(-1185.706 1976.776)" fill="none" stroke="#b2acac" stroke-width="0.774"/>
          <path id="Path_25" data-name="Path 25" d="M1697.489-1614.478l70.771-45.98,62.542,108.6V-1684.6l-58.111,21.85-10.721-96.435,64.244,72.074,51.54-34.84-113.414-37.232-176.182,68.056,21.3,83.431" transform="translate(-1266.4 1937.039)" fill="none" stroke="#b2acac" stroke-width="0.774"/>
          <path id="Path_26" data-name="Path 26" d="M1769.748-1655.776l-83.409-69.932,7.834,119.833-106.018-81.645,21.94-64.388,73.448,26.206,6.268-67.672-76.993,41.471" transform="translate(-1266.401 1931.427)" fill="none" stroke="#b2acac" stroke-width="0.774"/>
          <path id="Path_27" data-name="Path 27" d="M1741.238-1739.815l-25.33-138.772L1669.8-1775.619l74.814,40.233,128.09-161.842-152.67,18.641-37.444-11.153-12.79,110.9" transform="translate(-1245.442 1914.38)" fill="none" stroke="#b2acac" stroke-width="0.774"/>
          <path id="Path_28" data-name="Path 28" d="M1843.937-1897.229l-13.487,195.277L1951.51-1745l-107.573-152.231,185.049,110.621-72.389,39.038v87.826L1992.572-1745l-41.063-2.572-57.991,58.736-63.069-10.13-3.632,37.292-44.957,1.928" transform="translate(-1216.675 1914.379)" fill="none" stroke="#b2acac" stroke-width="0.774"/>
          <path id="Path_29" data-name="Path 29" d="M1871.445-1718.976l63.857,34.005" transform="translate(-1193.678 1943.64)" fill="none" stroke="#b2acac" stroke-width="0.774"/>
          <path id="Path_30" data-name="Path 30" d="M1950.773-1767.5l43.366,136.922" transform="translate(-1173.314 1935.674)" fill="none" stroke="#b2acac" stroke-width="0.774"/>
          <path id="Path_31" data-name="Path 31" d="M1950.773-1764.194l36.455-36.416,72.618,14.07-109.073,24.567" transform="translate(-1173.314 1930.24)" fill="none" stroke="#b2acac" stroke-width="0.774"/>
          <path id="Path_32" data-name="Path 32" d="M1916.281-1679.483l87.526,35.912" transform="translate(-1182.168 1950.123)" fill="none" stroke="#b2acac" stroke-width="0.774"/>
          <path id="Path_33" data-name="Path 33" d="M1833.308-1894.811l20.421-17.15,182.637,5.167" transform="translate(-1203.468 1911.961)" fill="none" stroke="#b2acac" stroke-width="0.774"/>
          <path id="Path_34" data-name="Path 34" d="M2013.825-1784.242l-164.154-126.746" transform="translate(-1199.267 1912.121)" fill="none" stroke="#b2acac" stroke-width="0.774"/>
        </g>
        <ellipse id="Ellipse_1" data-name="Ellipse 1" cx="8.263" cy="7.655" rx="8.263" ry="7.655" transform="translate(1325.872 -1213.931)" fill="#00845e"/>
        <ellipse id="Ellipse_2" data-name="Ellipse 2" cx="6.319" cy="5.853" rx="6.319" ry="5.853" transform="translate(1382.255 -1321.094)" fill="#e32955"/>
        <ellipse id="Ellipse_3" data-name="Ellipse 3" cx="9.235" cy="8.555" rx="9.235" ry="8.555" transform="translate(1423.085 -1268.863)" fill="#e32955"/>
        <ellipse id="Ellipse_4" data-name="Ellipse 4" cx="5.347" cy="4.953" rx="5.347" ry="4.953" transform="translate(1426.973 -1265.261)" fill="#0065cb"/>
        <ellipse id="Ellipse_5" data-name="Ellipse 5" cx="8.263" cy="7.655" rx="8.263" ry="7.655" transform="translate(1492.106 -1242.748)" fill="#00845e"/>
        <ellipse id="Ellipse_6" data-name="Ellipse 6" cx="6.319" cy="5.853" rx="6.319" ry="5.853" transform="translate(1494.05 -1240.946)" fill="#db9f01"/>
        <ellipse id="Ellipse_7" data-name="Ellipse 7" cx="6.805" cy="6.304" rx="6.805" ry="6.304" transform="translate(1440.583 -1334.602)" fill="#00845e"/>
        <ellipse id="Ellipse_8" data-name="Ellipse 8" cx="3.889" cy="3.602" rx="3.889" ry="3.602" transform="translate(1443.5 -1331.901)" fill="#db9f01"/>
        <ellipse id="Ellipse_9" data-name="Ellipse 9" cx="5.833" cy="5.403" rx="5.833" ry="5.403" transform="translate(1437.667 -1396.739)" fill="#db9f01"/>
        <ellipse id="Ellipse_10" data-name="Ellipse 10" cx="4.861" cy="4.503" rx="4.861" ry="4.503" transform="translate(1399.754 -1421.954)" fill="#db9f01"/>
        <ellipse id="Ellipse_11" data-name="Ellipse 11" cx="1.944" cy="1.801" rx="1.944" ry="1.801" transform="translate(1402.67 -1419.252)" fill="#00845e"/>
        <ellipse id="Ellipse_12" data-name="Ellipse 12" cx="7.777" cy="7.204" rx="7.777" ry="7.204" transform="translate(1353.091 -1452.572)" fill="#0065cb"/>
        <ellipse id="Ellipse_13" data-name="Ellipse 13" cx="4.861" cy="4.503" rx="4.861" ry="4.503" transform="translate(1470.719 -1462.478)" fill="#00845e"/>
        <ellipse id="Ellipse_14" data-name="Ellipse 14" cx="6.319" cy="5.853" rx="6.319" ry="5.853" transform="translate(1452.249 -1497.599)" fill="#0065cb"/>
        <ellipse id="Ellipse_15" data-name="Ellipse 15" cx="3.402" cy="3.152" rx="3.402" ry="3.152" transform="translate(1455.165 -1494.897)" fill="#db9f01"/>
        <ellipse id="Ellipse_16" data-name="Ellipse 16" cx="5.833" cy="5.403" rx="5.833" ry="5.403" transform="translate(1511.549 -1504.803)" fill="#e32955"/>
        <ellipse id="Ellipse_17" data-name="Ellipse 17" cx="4.375" cy="4.052" rx="4.375" ry="4.052" transform="translate(1513.493 -1503.002)" fill="#00845e"/>
        <ellipse id="Ellipse_18" data-name="Ellipse 18" cx="1.944" cy="1.801" rx="1.944" ry="1.801" transform="translate(1515.437 -1501.201)" fill="#0065cb"/>
        <ellipse id="Ellipse_19" data-name="Ellipse 19" cx="6.319" cy="5.853" rx="6.319" ry="5.853" transform="translate(1492.106 -1359.817)" fill="#db9f01"/>
        <ellipse id="Ellipse_20" data-name="Ellipse 20" cx="4.375" cy="4.052" rx="4.375" ry="4.052" transform="translate(1494.05 -1358.016)" fill="#00845e"/>
        <ellipse id="Ellipse_21" data-name="Ellipse 21" cx="7.777" cy="7.204" rx="7.777" ry="7.204" transform="translate(1556.267 -1390.435)" fill="#db9f01"/>
        <ellipse id="Ellipse_22" data-name="Ellipse 22" cx="6.805" cy="6.304" rx="6.805" ry="6.304" transform="translate(1527.103 -1347.21)" fill="#db9f01"/>
        <ellipse id="Ellipse_23" data-name="Ellipse 23" cx="4.861" cy="4.503" rx="4.861" ry="4.503" transform="translate(1529.047 -1345.408)" fill="#e32955"/>
        <ellipse id="Ellipse_24" data-name="Ellipse 24" cx="6.805" cy="6.304" rx="6.805" ry="6.304" transform="translate(1534.88 -1312.989)" fill="#0065cb"/>
        <ellipse id="Ellipse_25" data-name="Ellipse 25" cx="9.721" cy="9.005" rx="9.721" ry="9.005" transform="translate(1649.592 -1326.497)" fill="#00845e"/>
        <ellipse id="Ellipse_26" data-name="Ellipse 26" cx="8.749" cy="8.105" rx="8.749" ry="8.105" transform="translate(1753.61 -1223.836)" fill="#0065cb"/>
        <ellipse id="Ellipse_27" data-name="Ellipse 27" cx="9.721" cy="9.005" rx="9.721" ry="9.005" transform="translate(1776.941 -1199.522)" fill="#0065cb"/>
        <ellipse id="Ellipse_28" data-name="Ellipse 28" cx="11.666" cy="10.806" rx="11.666" ry="10.806" transform="translate(1651.536 -1361.618)" fill="#0065cb"/>
        <ellipse id="Ellipse_29" data-name="Ellipse 29" cx="5.347" cy="4.953" rx="5.347" ry="4.953" transform="translate(1658.341 -1355.314)" fill="#db9f01"/>
        <ellipse id="Ellipse_30" data-name="Ellipse 30" cx="11.18" cy="10.356" rx="11.18" ry="10.356" transform="translate(1836.241 -1249.952)" fill="#e32955"/>
        <ellipse id="Ellipse_31" data-name="Ellipse 31" cx="7.291" cy="6.754" rx="7.291" ry="6.754" transform="translate(1865.405 -1314.79)" fill="#00845e"/>
        <ellipse id="Ellipse_32" data-name="Ellipse 32" cx="4.375" cy="4.052" rx="4.375" ry="4.052" transform="translate(1868.321 -1312.089)" fill="#0065cb"/>
        <ellipse id="Ellipse_33" data-name="Ellipse 33" cx="6.805" cy="6.304" rx="6.805" ry="6.304" transform="translate(1793.467 -1338.204)" fill="#0065cb"/>
        <ellipse id="Ellipse_34" data-name="Ellipse 34" cx="3.402" cy="3.152" rx="3.402" ry="3.152" transform="translate(1797.356 -1334.602)" fill="#e32955"/>
        <ellipse id="Ellipse_35" data-name="Ellipse 35" cx="3.889" cy="3.602" rx="3.889" ry="3.602" transform="translate(1785.69 -1399.441)" fill="#0065cb"/>
        <ellipse id="Ellipse_36" data-name="Ellipse 36" cx="7.777" cy="7.204" rx="7.777" ry="7.204" transform="translate(1696.254 -1447.169)" fill="#00845e"/>
        <g id="Ellipse_37" data-name="Ellipse 37" transform="translate(1698.198 -1445.368)" fill="none" stroke="#e32955" stroke-width="1.547">
          <ellipse cx="6.319" cy="5.853" rx="6.319" ry="5.853" stroke="none"/>
          <ellipse cx="6.319" cy="5.853" rx="5.545" ry="5.08" fill="none"/>
        </g>
        <ellipse id="Ellipse_38" data-name="Ellipse 38" cx="6.319" cy="5.853" rx="6.319" ry="5.853" transform="translate(1709.864 -1542.625)" fill="#0065cb"/>
        <ellipse id="Ellipse_39" data-name="Ellipse 39" cx="4.861" cy="4.503" rx="4.861" ry="4.503" transform="translate(1734.167 -1546.228)" fill="#e32955"/>
        <ellipse id="Ellipse_40" data-name="Ellipse 40" cx="3.889" cy="3.602" rx="3.889" ry="3.602" transform="translate(1735.139 -1545.327)" fill="#db9f01"/>
        <ellipse id="Ellipse_41" data-name="Ellipse 41" cx="2.916" cy="2.702" rx="2.916" ry="2.702" transform="translate(1736.111 -1544.427)" fill="#0065cb"/>
        <ellipse id="Ellipse_42" data-name="Ellipse 42" cx="5.347" cy="4.953" rx="5.347" ry="4.953" transform="translate(1589.319 -1500.3)" fill="#0065cb"/>
        <ellipse id="Ellipse_45" data-name="Ellipse 45" cx="9.235" cy="8.555" rx="9.235" ry="8.555" transform="translate(1605.846 -1535.421)" fill="#0065cb"/>
        <g id="Ellipse_46" data-name="Ellipse 46" transform="translate(1608.762 -1532.72)" fill="none" stroke="#e32955" stroke-width="1.547">
          <ellipse cx="6.319" cy="5.853" rx="6.319" ry="5.853" stroke="none"/>
          <ellipse cx="6.319" cy="5.853" rx="5.545" ry="5.08" fill="none"/>
        </g>
        <ellipse id="Ellipse_43" data-name="Ellipse 43" cx="2.43" cy="2.251" rx="2.43" ry="2.251" transform="translate(1612.651 -1529.118)" fill="#00845e"/>
        <ellipse id="Ellipse_49" data-name="Ellipse 49" cx="7.777" cy="7.204" rx="7.777" ry="7.204" transform="translate(1670.979 -1573.244)" fill="#db9f01"/>
        <ellipse id="Ellipse_48" data-name="Ellipse 48" cx="4.861" cy="4.503" rx="4.861" ry="4.503" transform="translate(1673.895 -1570.542)" fill="#00845e"/>
        <ellipse id="Ellipse_47" data-name="Ellipse 47" cx="3.889" cy="3.602" rx="3.889" ry="3.602" transform="translate(1674.867 -1569.642)" fill="#0065cb"/>
        <ellipse id="Ellipse_50" data-name="Ellipse 50" cx="6.805" cy="6.304" rx="6.805" ry="6.304" transform="translate(1670.006 -1587.652)" fill="#00845e"/>
        <ellipse id="Ellipse_52" data-name="Ellipse 52" cx="6.319" cy="5.853" rx="6.319" ry="5.853" transform="translate(1823.603 -1385.932)" fill="#00845e"/>
        <ellipse id="Ellipse_51" data-name="Ellipse 51" cx="3.402" cy="3.152" rx="3.402" ry="3.152" transform="translate(1826.52 -1383.231)" fill="#e32955"/>
        <ellipse id="Ellipse_54" data-name="Ellipse 54" cx="8.749" cy="8.105" rx="8.749" ry="8.105" transform="translate(1921.788 -1390.435)" fill="#0065cb"/>
        <ellipse id="Ellipse_53" data-name="Ellipse 53" cx="7.777" cy="7.204" rx="7.777" ry="7.204" transform="translate(1922.761 -1389.535)" fill="#e32955"/>
        <ellipse id="Ellipse_55" data-name="Ellipse 55" cx="4.375" cy="4.052" rx="4.375" ry="4.052" transform="translate(1910.123 -1340.906)" fill="#0065cb"/>
        <ellipse id="Ellipse_56" data-name="Ellipse 56" cx="3.402" cy="3.152" rx="3.402" ry="3.152" transform="translate(1911.095 -1340.005)" fill="#00845e"/>
        <ellipse id="Ellipse_57" data-name="Ellipse 57" cx="2.43" cy="2.251" rx="2.43" ry="2.251" transform="translate(1912.067 -1339.105)" fill="#e32955"/>
        <ellipse id="Ellipse_58" data-name="Ellipse 58" cx="7.777" cy="7.204" rx="7.777" ry="7.204" transform="translate(1847.907 -1465.18)" fill="#00845e"/>
        <ellipse id="Ellipse_59" data-name="Ellipse 59" cx="5.833" cy="5.403" rx="5.833" ry="5.403" transform="translate(1849.851 -1463.379)" fill="#db9f01"/>
        <ellipse id="Ellipse_60" data-name="Ellipse 60" cx="10.207" cy="9.456" rx="10.207" ry="9.456" transform="translate(1887.764 -1534.521)" fill="#db9f01"/>
        <ellipse id="Ellipse_61" data-name="Ellipse 61" cx="6.319" cy="5.853" rx="6.319" ry="5.853" transform="translate(1932.482 -1501.201)" fill="#db9f01"/>
        <ellipse id="Ellipse_62" data-name="Ellipse 62" cx="9.235" cy="8.555" rx="9.235" ry="8.555" transform="translate(1963.59 -1490.395)" fill="#db9f01"/>
        <ellipse id="Ellipse_63" data-name="Ellipse 63" cx="5.833" cy="5.403" rx="5.833" ry="5.403" transform="translate(1967.479 -1486.792)" fill="#00845e"/>
        <ellipse id="Ellipse_64" data-name="Ellipse 64" cx="5.833" cy="5.403" rx="5.833" ry="5.403" transform="translate(2007.336 -1431.86)" fill="#00845e"/>
        <ellipse id="Ellipse_65" data-name="Ellipse 65" cx="8.749" cy="8.105" rx="8.749" ry="8.105" transform="translate(2041.361 -1458.876)" fill="#0065cb"/>
        <ellipse id="Ellipse_66" data-name="Ellipse 66" cx="10.693" cy="9.906" rx="10.693" ry="9.906" transform="translate(2007.336 -1286.874)" fill="#0065cb"/>
        <ellipse id="Ellipse_67" data-name="Ellipse 67" cx="5.833" cy="5.403" rx="5.833" ry="5.403" transform="translate(2012.197 -1282.371)" fill="#e32955"/>
        <ellipse id="Ellipse_68" data-name="Ellipse 68" cx="2.916" cy="2.702" rx="2.916" ry="2.702" transform="translate(2015.113 -1279.669)" fill="#00845e"/>
        <ellipse id="Ellipse_69" data-name="Ellipse 69" cx="4.861" cy="4.503" rx="4.861" ry="4.503" transform="translate(2033.584 -1363.419)" fill="#0065cb"/>
        <ellipse id="Ellipse_70" data-name="Ellipse 70" cx="8.263" cy="7.655" rx="8.263" ry="7.655" transform="translate(2000.531 -1367.021)" fill="#00845e"/>
        <g id="Ellipse_71" data-name="Ellipse 71" transform="translate(2003.448 -1364.32)" fill="none" stroke="#e32955" stroke-width="1.547">
          <ellipse cx="5.347" cy="4.953" rx="5.347" ry="4.953" stroke="none"/>
          <ellipse cx="5.347" cy="4.953" rx="4.573" ry="4.179" fill="none"/>
        </g>
        <ellipse id="Ellipse_72" data-name="Ellipse 72" cx="4.375" cy="4.052" rx="4.375" ry="4.052" transform="translate(2004.42 -1363.419)" fill="#0065cb"/>
        <ellipse id="Ellipse_73" data-name="Ellipse 73" cx="8.749" cy="8.105" rx="8.749" ry="8.105" transform="translate(1753.61 -1593.956)" fill="#00845e"/>
        <ellipse id="Ellipse_74" data-name="Ellipse 74" cx="7.777" cy="7.204" rx="7.777" ry="7.204" transform="translate(1754.582 -1593.056)" fill="#db9f01"/>
        <ellipse id="Ellipse_75" data-name="Ellipse 75" cx="4.375" cy="4.052" rx="4.375" ry="4.052" transform="translate(1758.47 -1589.453)" fill="#00845e"/>
        <ellipse id="Ellipse_76" data-name="Ellipse 76" cx="2.43" cy="2.251" rx="2.43" ry="2.251" transform="translate(1760.415 -1587.652)" fill="#e32955"/>
        <ellipse id="Ellipse_77" data-name="Ellipse 77" cx="7.291" cy="6.754" rx="7.291" ry="6.754" transform="translate(1647.647 -1673.203)" fill="#db9f01"/>
        <ellipse id="Ellipse_78" data-name="Ellipse 78" cx="4.375" cy="4.052" rx="4.375" ry="4.052" transform="translate(1650.564 -1670.501)" fill="#0065cb"/>
        <ellipse id="Ellipse_79" data-name="Ellipse 79" cx="3.402" cy="3.152" rx="3.402" ry="3.152" transform="translate(1651.536 -1669.601)" fill="#00845e"/>
        <ellipse id="Ellipse_80" data-name="Ellipse 80" cx="5.833" cy="5.403" rx="5.833" ry="5.403" transform="translate(1671.951 -1735.34)" fill="#e32955"/>
        <ellipse id="Ellipse_81" data-name="Ellipse 81" cx="5.347" cy="4.953" rx="5.347" ry="4.953" transform="translate(1747.777 -1708.324)" fill="#db9f01"/>
        <ellipse id="Ellipse_82" data-name="Ellipse 82" cx="8.749" cy="8.105" rx="8.749" ry="8.105" transform="translate(1749.721 -1781.267)" fill="#0065cb"/>
        <ellipse id="Ellipse_83" data-name="Ellipse 83" cx="5.347" cy="4.953" rx="5.347" ry="4.953" transform="translate(1753.61 -1777.665)" fill="#00845e"/>
        <ellipse id="Ellipse_84" data-name="Ellipse 84" cx="8.749" cy="8.105" rx="8.749" ry="8.105" transform="translate(1822.631 -1739.843)" fill="#0065cb"/>
        <ellipse id="Ellipse_85" data-name="Ellipse 85" cx="6.319" cy="5.853" rx="6.319" ry="5.853" transform="translate(1766.247 -1891.132)" fill="#0065cb"/>
        <ellipse id="Ellipse_86" data-name="Ellipse 86" cx="6.319" cy="5.853" rx="6.319" ry="5.853" transform="translate(1797.356 -1881.227)" fill="#0065cb"/>
        <ellipse id="Ellipse_87" data-name="Ellipse 87" cx="5.347" cy="4.953" rx="5.347" ry="4.953" transform="translate(1798.328 -1881.227)" fill="#00845e"/>
        <ellipse id="Ellipse_88" data-name="Ellipse 88" cx="6.805" cy="6.304" rx="6.805" ry="6.304" transform="translate(1953.869 -1900.138)" fill="#0065cb"/>
        <ellipse id="Ellipse_89" data-name="Ellipse 89" cx="4.375" cy="4.052" rx="4.375" ry="4.052" transform="translate(1955.813 -1898.337)" fill="#db9f01"/>
        <ellipse id="Ellipse_90" data-name="Ellipse 90" cx="3.402" cy="3.152" rx="3.402" ry="3.152" transform="translate(1981.089 -1914.546)" fill="#00845e"/>
        <ellipse id="Ellipse_91" data-name="Ellipse 91" cx="6.805" cy="6.304" rx="6.805" ry="6.304" transform="translate(2062.748 -1749.749)" fill="#00845e"/>
        <ellipse id="Ellipse_92" data-name="Ellipse 92" cx="4.375" cy="4.052" rx="4.375" ry="4.052" transform="translate(2105.521 -1747.047)" fill="#00845e"/>
        <g id="Ellipse_93" data-name="Ellipse 93" transform="translate(2141.49 -1791.173)" fill="#00845e" stroke="#0065cb" stroke-width="0.774">
          <ellipse cx="8.749" cy="8.105" rx="8.749" ry="8.105" stroke="none"/>
          <ellipse cx="8.749" cy="8.105" rx="8.362" ry="7.718" fill="none"/>
        </g>
        <g id="Ellipse_94" data-name="Ellipse 94" transform="translate(1831.38 -1640.784)" fill="#e32955" stroke="#e32955" stroke-width="0.774">
          <ellipse cx="6.319" cy="5.853" rx="6.319" ry="5.853" stroke="none"/>
          <ellipse cx="6.319" cy="5.853" rx="5.932" ry="5.467" fill="none"/>
        </g>
        <ellipse id="Ellipse_95" data-name="Ellipse 95" cx="9.235" cy="8.555" rx="9.235" ry="8.555" transform="translate(1887.764 -1665.999)" fill="#e32955"/>
        <ellipse id="Ellipse_96" data-name="Ellipse 96" cx="7.291" cy="6.754" rx="7.291" ry="6.754" transform="translate(1937.343 -1661.496)" fill="#00845e"/>
        <ellipse id="Ellipse_97" data-name="Ellipse 97" cx="4.375" cy="4.052" rx="4.375" ry="4.052" transform="translate(1940.259 -1658.794)" fill="#db9f01"/>
        <ellipse id="Ellipse_98" data-name="Ellipse 98" cx="12.152" cy="11.257" rx="12.152" ry="11.257" transform="translate(1935.399 -1707.423)" fill="#db9f01"/>
        <ellipse id="Ellipse_99" data-name="Ellipse 99" cx="9.235" cy="8.555" rx="9.235" ry="8.555" transform="translate(1938.315 -1704.722)" fill="#0065cb"/>
        <ellipse id="Ellipse_100" data-name="Ellipse 100" cx="5.347" cy="4.953" rx="5.347" ry="4.953" transform="translate(2006.364 -1690.313)" fill="#00845e"/>
        <ellipse id="Ellipse_101" data-name="Ellipse 101" cx="5.833" cy="5.403" rx="5.833" ry="5.403" transform="translate(2069.552 -1658.794)" fill="#0065cb"/>
        <ellipse id="Ellipse_102" data-name="Ellipse 102" cx="7.291" cy="6.754" rx="7.291" ry="6.754" transform="translate(2059.831 -1647.088)" fill="#00845e"/>
        <ellipse id="Ellipse_103" data-name="Ellipse 103" cx="3.889" cy="3.602" rx="3.889" ry="3.602" transform="translate(2063.72 -1643.485)" fill="#0065cb"/>
        <ellipse id="Ellipse_104" data-name="Ellipse 104" cx="7.777" cy="7.204" rx="7.777" ry="7.204" transform="translate(2048.166 -1611.066)" fill="#00845e"/>
        <ellipse id="Ellipse_105" data-name="Ellipse 105" cx="7.291" cy="6.754" rx="7.291" ry="6.754" transform="translate(2074.413 -1539.023)" fill="#db9f01"/>
        <ellipse id="Ellipse_106" data-name="Ellipse 106" cx="3.402" cy="3.152" rx="3.402" ry="3.152" transform="translate(2078.302 -1535.421)" fill="#e32955"/>
        <ellipse id="Ellipse_107" data-name="Ellipse 107" cx="5.347" cy="4.953" rx="5.347" ry="4.953" transform="translate(2123.02 -1539.023)" fill="#e32955"/>
        <ellipse id="Ellipse_108" data-name="Ellipse 108" cx="6.319" cy="5.853" rx="6.319" ry="5.853" transform="translate(2144.407 -1548.929)" fill="#e32955"/>
        <ellipse id="Ellipse_109" data-name="Ellipse 109" cx="3.889" cy="3.602" rx="3.889" ry="3.602" transform="translate(2147.323 -1546.228)" fill="#db9f01"/>
        <ellipse id="Ellipse_110" data-name="Ellipse 110" cx="10.207" cy="9.456" rx="10.207" ry="9.456" transform="translate(2096.772 -1363.419)" fill="#0065cb"/>
      </g>
    </g>
  </g>
</svg>
